<svg width="28" height="28" viewBox="0 0 28 28" fill="none" xmlns="http://www.w3.org/2000/svg">
<path d="M24.1651 9.48279L23.8781 10.1431C23.8332 10.2506 23.7576 10.3425 23.6606 10.4071C23.5637 10.4717 23.4498 10.5062 23.3333 10.5062C23.2168 10.5062 23.1028 10.4717 23.0059 10.4071C22.9089 10.3425 22.8333 10.2506 22.7884 10.1431L22.5014 9.48279C21.9968 8.31463 21.0727 7.37803 19.9114 6.85779L19.0259 6.46229C18.9185 6.41287 18.8275 6.33369 18.7637 6.23412C18.6999 6.13456 18.666 6.01879 18.666 5.90054C18.666 5.78229 18.6999 5.66652 18.7637 5.56695C18.8275 5.46739 18.9185 5.38821 19.0259 5.33879L19.8624 4.96662C21.0529 4.43156 21.9928 3.46032 22.4886 2.25296L22.7838 1.54012C22.8271 1.4297 22.9027 1.3349 23.0007 1.26808C23.0988 1.20127 23.2146 1.16553 23.3333 1.16553C23.4519 1.16553 23.5678 1.20127 23.6658 1.26808C23.7638 1.3349 23.8394 1.4297 23.8828 1.54012L24.1779 2.25179C24.6732 3.45938 25.6127 4.43104 26.8029 4.96662L27.6406 5.33996C27.7477 5.38951 27.8384 5.46869 27.9019 5.56812C27.9655 5.66756 27.9993 5.78311 27.9993 5.90112C27.9993 6.01913 27.9655 6.13468 27.9019 6.23412C27.8384 6.33356 27.7477 6.41273 27.6406 6.46229L26.7539 6.85662C25.5929 7.37738 24.6692 8.3144 24.1651 9.48279ZM25.6666 14.0001C25.6666 13.4806 25.6335 12.9703 25.5674 12.4695C24.8474 12.7112 24.0928 12.8341 23.3333 12.8335C22.1046 12.8338 20.8975 12.5107 19.8333 11.8966V17.5001H17.4999V10.5001H18.1159C16.9661 9.21793 16.3311 7.55572 16.3333 5.83346C16.3333 4.72162 16.5923 3.67046 17.0531 2.73712C16.0577 2.46824 15.031 2.3325 13.9999 2.33346C7.55643 2.33346 2.33326 7.55662 2.33326 14.0001C2.33137 15.5325 2.63228 17.0501 3.21871 18.4658C3.80514 19.8815 4.66552 21.1674 5.75043 22.2496L2.33326 25.6668H13.9999C20.4434 25.6668 25.6666 20.4436 25.6666 14.0001ZM12.8333 7.00012H15.1666V21.0001H12.8333V7.00012ZM8.16659 17.5001V10.5001H10.4999V17.5001H8.16659Z" fill="currentColor"/>

 <defs>
    <linearGradient id="chatbot_gradient" x1="0" y1="0" x2="28" y2="28" gradientUnits="userSpaceOnUse">
      <stop stop-color="#259FFA"/>
      <stop offset="1" stop-color="#696DEA"/>
    </linearGradient>
  </defs>
  <path
    d="M24.1651 9.48279L23.8781 10.1431C23.8332 10.2506 23.7576 10.3425 23.6606 10.4071C23.5637 10.4717 23.4498 10.5062 23.3333 10.5062C23.2168 10.5062 23.1028 10.4717 23.0059 10.4071C22.9089 10.3425 22.8333 10.2506 22.7884 10.1431L22.5014 9.48279C21.9968 8.31463 21.0727 7.37803 19.9114 6.85779L19.0259 6.46229C18.9185 6.41287 18.8275 6.33369 18.7637 6.23412C18.6999 6.13456 18.666 6.01879 18.666 5.90054C18.666 5.78229 18.6999 5.66652 18.7637 5.56695C18.8275 5.46739 18.9185 5.38821 19.0259 5.33879L19.8624 4.96662C21.0529 4.43156 21.9928 3.46032 22.4886 2.25296L22.7838 1.54012C22.8271 1.4297 22.9027 1.3349 23.0007 1.26808C23.0988 1.20127 23.2146 1.16553 23.3333 1.16553C23.4519 1.16553 23.5678 1.20127 23.6658 1.26808C23.7638 1.3349 23.8394 1.4297 23.8828 1.54012L24.1779 2.25179C24.6732 3.45938 25.6127 4.43104 26.8029 4.96662L27.6406 5.33996C27.7477 5.38951 27.8384 5.46869 27.9019 5.56812C27.9655 5.66756 27.9993 5.78311 27.9993 5.90112C27.9993 6.01913 27.9655 6.13468 27.9019 6.23412C27.8384 6.33356 27.7477 6.41273 27.6406 6.46229L26.7539 6.85662C25.5929 7.37738 24.6692 8.3144 24.1651 9.48279ZM25.6666 14.0001C25.6666 13.4806 25.6335 12.9703 25.5674 12.4695C24.8474 12.7112 24.0928 12.8341 23.3333 12.8335C22.1046 12.8338 20.8975 12.5107 19.8333 11.8966V17.5001H17.4999V10.5001H18.1159C16.9661 9.21793 16.3311 7.55572 16.3333 5.83346C16.3333 4.72162 16.5923 3.67046 17.0531 2.73712C16.0577 2.46824 15.031 2.3325 13.9999 2.33346C7.55643 2.33346 2.33326 7.55662 2.33326 14.0001C2.33137 15.5325 2.63228 17.0501 3.21871 18.4658C3.80514 19.8815 4.66552 21.1674 5.75043 22.2496L2.33326 25.6668H13.9999C20.4434 25.6668 25.6666 20.4436 25.6666 14.0001ZM12.8333 7.00012H15.1666V21.0001H12.8333V7.00012ZM8.16659 17.5001V10.5001H10.4999V17.5001H8.16659Z"
    fill="url(#chatbot_gradient)"
  />
</svg>